<svg version="1" xmlns="http://www.w3.org/2000/svg" width="666.667" height="666.667" viewBox="0 0 500.000000 500.000000"><path d="M391.1 92.1c-21.2 3.5-38.7 24.2-44.8 52.9-2.4 11.7-2.5 39 0 50.8 5.5 25.8 15.7 39.6 43.2 58.6 16.5 11.4 27 21.7 31.7 31.1 6 12 7.3 18.6 7.3 39 0 15.8-.3 19-2.3 26-4.9 17-13.7 29.1-25 34.7-6.1 3-7.2 3.2-16.1 3.1-11.7-.2-26-3.7-35.2-8.4-3.5-1.9-6.7-3.5-7.1-3.7-.5-.2-.8 4.6-.8 10.6v10.9l6.8 3c9 4.1 19.5 6.3 32.2 7 18.4 1 28.1-2.5 40.2-14.8 13.3-13.3 20.5-31.7 22.9-57.7 1.9-21.4-1.5-43.1-9.2-58.5-7.4-14.7-17.6-25.6-35.1-37.6-28.9-19.6-37.4-32.3-39.8-59.3-2.8-31.7 6.4-56 24.5-64.9 5.6-2.7 7.6-3.2 14.2-3.2 10.1-.1 16.8 1.6 27.3 6.6 4.7 2.3 8.8 4.2 9.1 4.4.6.4 5.9-16.2 5.9-18.3 0-3.3-20.4-11-33-12.4-9.5-1.1-9.5-1.1-16.9.1zM55 105.5v9.5l23.8.2 23.7.3.3 144.2.2 144.3h15V115h47V96H55v9.5zM191 250v154h16V252h83v152h15V96h-15l-.2 68.2-.3 68.3-41.2.3-41.3.2V96h-16v154z"/></svg>